<svg xmlns="http://www.w3.org/2000/svg" version="1.1" xmlns:xlink="http://www.w3.org/1999/xlink" xmlns:svgjs="http://svgjs.dev/svgjs" width="1000" height="1000" viewBox="0 0 1000 1000"><rect width="1000" height="1000" fill="#000000"></rect><g transform="matrix(0.7,0,0,0.7,150.7664429813447,114.61230912998934)"><svg viewBox="0 0 224 247" data-background-color="#000000" preserveAspectRatio="xMidYMid meet" height="1102" width="1000" xmlns="http://www.w3.org/2000/svg" xmlns:xlink="http://www.w3.org/1999/xlink"><g id="tight-bounds" transform="matrix(1,0,0,1,-0.24526175403030948,-0.10000046034141974)"><svg viewBox="0 0 224.4905235080606 247.2" height="247.2" width="224.4905235080606"><g><svg viewBox="0 0 397.4975999999999 437.70848401300907" height="247.2" width="224.4905235080606"><g><rect width="397.4975999999999" height="11.324646961546033" x="0" y="169.56015840139176" fill="#80cb89" opacity="1" stroke-width="0" stroke="transparent" fill-opacity="1" class="rect-o-0" data-fill-palette-color="primary" rx="1%" id="o-0" data-palette-color="#80cb89"></rect></g><g transform="matrix(1,0,0,1,0.9887999999999693,210.53047803714205)"><svg viewBox="0 0 395.52 227.17800597586697" height="227.17800597586697" width="395.52"><g><svg viewBox="0 0 395.52 227.17800597586697" height="227.17800597586697" width="395.52"><g><svg viewBox="0 0 395.52 125.57681710213775" height="125.57681710213775" width="395.52"><g transform="matrix(1,0,0,1,0,0)"><svg width="395.52" viewBox="2.200000047683716 -38.70000076293945 126.27999877929688 40.10000228881836" height="125.57681710213775" data-palette-color="#80cb89"><path d="M9.9 0.8Q8.5 0.8 7.33 0.15 6.15-0.5 5.3-1.6L5.3-1.6Q4.55-2.65 3.95-4.28 3.35-5.9 3.05-7.65L3.05-7.65Q2.45-10.6 2.25-15.4L2.25-15.4Q2.2-16.55 2.2-19.35L2.2-19.35 2.2-22.5Q2.25-23.85 2.25-25.3L2.25-25.3Q2.25-28.25 2.6-29.95L2.6-29.95Q2.45-30.7 2.45-31.5L2.45-31.5Q2.45-34.5 4.7-36.35 6.95-38.2 10.4-38.2L10.4-38.2Q11.7-38.2 12.8-37.5 13.9-36.8 13.9-35.75L13.9-35.75Q13.9-35.25 13.5-34.95 13.1-34.65 12.5-34.65L12.5-34.65Q12-34.65 11.43-34.8 10.85-34.95 10.7-35.25L10.7-35.25 10.05-35.25 10.05-35.35Q8.2-35.35 6.95-34.55L6.95-34.55Q6.05-33.9 5.55-32.4L5.55-32.4Q5.35-31.85 5.25-31 5.15-30.15 5.15-29.45L5.15-29.45Q5.1-29.05 5.1-27.85L5.1-27.85 5.2-26.1 5.25-24.4Q5.25-23.65 5.05-22.65L5.05-22.65Q4.8-21.4 4.8-20.9L4.8-20.9 4.8-19.7Q4.8-17.75 4.95-14.35L4.95-14.35Q5-11.5 5.6-8.65L5.6-8.65Q6.05-6 7.3-4.15L7.3-4.15Q8.5-2.25 10.55-2.25L10.55-2.25Q11.4-2.25 12.65-3.15L12.65-3.15Q14-4.05 14.55-4.05L14.55-4.05Q15.25-4.05 16-3.3L16-3.3Q16-1.45 14.6-0.45L14.6-0.45Q13.3 0.45 11.5 0.7L11.5 0.7Q10.5 0.8 9.9 0.8L9.9 0.8ZM29.75 0Q28.95 0 28.57-0.3 28.2-0.6 28.2-1.3L28.2-1.3 28.2-7.85Q27.55-8.3 25.75-8.65 23.95-9 22.35-9.1L22.35-9.1Q21.8-8.05 21.55-6.55L21.55-6.55 21.35-5.55Q21.3-5.2 21.05-4 20.8-2.8 20.5-1.93 20.2-1.05 19.9-0.55L19.9-0.55Q18-0.55 17.7-1.55L17.7-1.55Q18.25-2.35 18.95-6.25L18.95-6.25 20.6-15.4Q21.7-21.9 22.62-26.5 23.55-31.1 24.6-34.2L24.6-34.2Q25.75-37.65 26.8-37.65L26.8-37.65Q27.85-37.65 28.4-37.25L28.4-37.25Q28.4-35.25 29.35-27.6L29.35-27.6Q30.35-20.1 30.35-17.35L30.35-17.35Q30.35-14.7 30.9-9.75L30.9-9.75Q31.4-4.7 31.4-1.7L31.4-1.7Q31.4 0 29.75 0L29.75 0ZM27.15-10.75Q27.55-10.75 28.15-10.9L28.15-10.9Q28-13.1 27.65-16.35L27.65-16.35Q26.5-27.65 26.5-30.2L26.5-30.2 26.5-30.6Q26-30.1 25.12-26.08 24.25-22.05 23.5-17.45 22.75-12.85 22.7-11.35L22.7-11.35Q24.8-10.75 27.15-10.75L27.15-10.75ZM39.99 0.05Q38.55 0.05 38.55-3.15L38.55-3.15Q38.55-8.95 38.02-21.7 37.49-34.45 37.05-35.15L37.05-35.15Q37.05-36.55 38.14-37.3L38.14-37.3Q38.55-37.55 39.27-37.73 39.99-37.9 40.59-37.9L40.59-37.9Q40.89-37.95 41.84-37.95L41.84-37.95Q42.99-37.95 43.49-37.58 43.99-37.2 43.99-36.25L43.99-36.25Q43.99-35.7 43.59-35.43 43.2-35.15 42.59-35.15L42.59-35.15 42.09-35.2 41.39-35.2Q39.99-35.2 39.99-34.65L39.99-34.65Q39.99-32.05 40.34-27.85L40.34-27.85Q40.64-24.35 40.74-21.2L40.74-21.2Q41.09-21.3 42.07-21.53 43.05-21.75 43.55-21.75L43.55-21.75Q44.09-21.75 44.49-21.28 44.89-20.8 44.89-20.2L44.89-20.2Q44.89-19.5 44.24-19.2L44.24-19.2Q44.14-19.15 43.77-18.98 43.39-18.8 42.8-18.75L42.8-18.75Q42.34-18.7 41.3-18.6L41.3-18.6 40.74-18.6Q40.74-15.6 41.24-10.45L41.24-10.45Q41.7-5.05 41.7-2.3L41.7-2.3 41.64-2.1 41.59-2Q41.64-1.8 41.64-1.35L41.64-1.35Q41.64-0.7 41.2-0.33 40.74 0.05 39.99 0.05L39.99 0.05ZM53.44 0.3Q52.49 0.3 51.79 0.05L51.79 0.05Q50.94-0.2 50.94-1.35L50.94-1.35 50.94-30.4Q50.94-31.25 50.64-32.95L50.64-32.95Q50.29-34.5 50.29-35.5L50.29-35.5 50.29-35.65Q51.14-37.05 51.54-37.45L51.54-37.45Q52.24-37.45 53.39-37.65L53.39-37.65Q54.44-37.85 55.24-37.85L55.24-37.85Q56.04-37.85 56.79-37.38 57.54-36.9 57.54-36.25L57.54-36.25Q57.54-34.75 55.24-34.75L55.24-34.75 54.54-34.75Q54.24-34.8 53.84-34.8L53.84-34.8Q53.39-34.8 53.29-34.75L53.29-34.75Q53.29-33.05 53.49-30.65L53.49-30.65 53.59-29.25 53.69-26.5Q53.69-25.55 53.54-23.6L53.54-23.6 53.44-20.8 54.14-20.95Q55.14-21.25 55.79-21.25L55.79-21.25Q56.34-21.25 56.79-20.83 57.24-20.4 57.24-19.85L57.24-19.85Q57.24-19.25 56.87-18.78 56.49-18.3 55.94-18.3L55.94-18.3 55.34-18.35 54.69-18.35Q53.94-18.35 53.64-18L53.64-18 53.64-2.55 56.44-2.7Q59.29-2.7 59.29-1.4L59.29-1.4 59.29-1.2Q58.99-0.6 58.19-0.23 57.39 0.15 56.64 0.25L56.64 0.25 54.99 0.3 53.44 0.3ZM75.94 0.55Q75.29 0.55 74.76 0.08 74.24-0.4 74.24-1.05L74.24-1.05Q74.24-1.5 74.44-2.15L74.44-2.15Q74.59-2.85 74.59-3.2L74.59-3.2Q74.59-7.65 74.09-20.3L74.09-20.3Q73.59-31.1 73.59-37.35L73.59-37.35Q73.59-37.8 73.94-38.08 74.29-38.35 74.79-38.35L74.79-38.35Q75.39-38.35 75.84-37.93 76.29-37.5 76.29-36.9L76.29-36.9Q76.29-33.9 76.59-27.9L76.59-27.9Q76.84-21.25 76.84-18.9L76.84-18.9 76.89-18.3 76.89-17.7 76.89-17.35 76.89-17.1Q77.04-12.75 77.04-4.1L77.04-4.1 77.04-2.8 80.89-2.8Q81.94-2.05 81.94-1.3L81.94-1.3Q81.94-0.75 81.56-0.33 81.19 0.1 80.69 0.1L80.69 0.1Q80.54 0.1 80.14 0L80.14 0 79.94-0.05Q79.64 0 78.99 0L78.99 0 78.14 0Q77.79-0.05 77.34-0.05L77.34-0.05Q76.84 0.55 75.94 0.55L75.94 0.55ZM92.69 1.4Q91.34 1.4 90.23 0.5 89.14-0.4 88.34-1.95L88.34-1.95Q86.89-4.65 86.19-9.35L86.19-9.35Q85.69-12.6 85.44-16.85L85.44-16.85 85.39-19.5 85.39-22.2Q85.34-23.5 85.34-25.35L85.34-25.35Q85.34-28.35 85.59-30.65L85.59-30.65Q85.79-33.05 86.59-35.4L86.59-35.4Q87.39-37.45 88.89-38.3L88.89-38.3Q89.79-38.7 90.69-38.7L90.69-38.7Q93.34-38.7 94.89-36.6L94.89-36.6Q96.59-34.25 97.14-31.35L97.14-31.35Q97.94-27.85 98.04-24.65L98.04-24.65Q98.24-21.1 98.24-17.95L98.24-17.95 98.24-15.1Q98.24-14.25 97.99-11.9L97.99-11.9Q97.79-10.05 97.79-8.75L97.79-8.75 97.79-8.55Q97.49-7.15 97.49-5.25L97.49-5.25Q97.49-3.85 96.89-2.35 96.29-0.85 95.19 0.2L95.19 0.2Q94.09 1.4 92.69 1.4L92.69 1.4ZM92.79-1.35Q93.79-1.35 94.49-3.2L94.49-3.2Q95.09-4.85 95.36-7.23 95.64-9.6 95.84-12.6L95.84-12.6Q95.94-13.9 95.94-15.95L95.94-15.95 95.89-20.55Q95.79-23.25 95.29-27.3L95.29-27.3Q94.89-30.75 93.79-33.4L93.79-33.4Q93.29-34.65 92.54-35.35 91.79-36.05 90.94-36.05L90.94-36.05Q89.69-36.05 89.09-34.1L89.09-34.1Q88.34-32.05 88.09-29.6L88.09-29.6Q87.79-26.95 87.73-24.55L87.73-24.55 87.69-22.9Q87.64-22.2 87.64-21L87.64-21 87.64-20.8Q87.64-17.45 88.34-12.55L88.34-12.55Q89.14-5.9 90.69-3.1L90.69-3.1Q91.69-1.35 92.79-1.35L92.79-1.35ZM106.18 0.55Q105.53 0.55 105.01 0.08 104.48-0.4 104.48-1.05L104.48-1.05Q104.48-1.5 104.68-2.15L104.68-2.15Q104.83-2.85 104.83-3.2L104.83-3.2Q104.83-7.65 104.33-20.3L104.33-20.3Q103.83-31.1 103.83-37.35L103.83-37.35Q103.83-37.8 104.18-38.08 104.53-38.35 105.03-38.35L105.03-38.35Q105.63-38.35 106.08-37.93 106.53-37.5 106.53-36.9L106.53-36.9Q106.53-33.9 106.83-27.9L106.83-27.9Q107.08-21.25 107.08-18.9L107.08-18.9 107.13-18.3 107.13-17.7 107.13-17.35 107.13-17.1Q107.28-12.75 107.28-4.1L107.28-4.1 107.28-2.8 111.13-2.8Q112.18-2.05 112.18-1.3L112.18-1.3Q112.18-0.75 111.81-0.33 111.43 0.1 110.93 0.1L110.93 0.1Q110.78 0.1 110.38 0L110.38 0 110.18-0.05Q109.88 0 109.23 0L109.23 0 108.38 0Q108.03-0.05 107.58-0.05L107.58-0.05Q107.08 0.55 106.18 0.55L106.18 0.55ZM122.93 1.4Q121.58 1.4 120.48 0.5 119.38-0.4 118.58-1.95L118.58-1.95Q117.13-4.65 116.43-9.35L116.43-9.35Q115.93-12.6 115.68-16.85L115.68-16.85 115.63-19.5 115.63-22.2Q115.58-23.5 115.58-25.35L115.58-25.35Q115.58-28.35 115.83-30.65L115.83-30.65Q116.03-33.05 116.83-35.4L116.83-35.4Q117.63-37.45 119.13-38.3L119.13-38.3Q120.03-38.7 120.93-38.7L120.93-38.7Q123.58-38.7 125.13-36.6L125.13-36.6Q126.83-34.25 127.38-31.35L127.38-31.35Q128.18-27.85 128.28-24.65L128.28-24.65Q128.48-21.1 128.48-17.95L128.48-17.95 128.48-15.1Q128.48-14.25 128.23-11.9L128.23-11.9Q128.03-10.05 128.03-8.75L128.03-8.75 128.03-8.55Q127.73-7.15 127.73-5.25L127.73-5.25Q127.73-3.85 127.13-2.35 126.53-0.85 125.43 0.2L125.43 0.2Q124.33 1.4 122.93 1.4L122.93 1.4ZM123.03-1.35Q124.03-1.35 124.73-3.2L124.73-3.2Q125.33-4.85 125.61-7.23 125.88-9.6 126.08-12.6L126.08-12.6Q126.18-13.9 126.18-15.95L126.18-15.95 126.13-20.55Q126.03-23.25 125.53-27.3L125.53-27.3Q125.13-30.75 124.03-33.4L124.03-33.4Q123.53-34.65 122.78-35.35 122.03-36.05 121.18-36.05L121.18-36.05Q119.93-36.05 119.33-34.1L119.33-34.1Q118.58-32.05 118.33-29.6L118.33-29.6Q118.03-26.95 117.98-24.55L117.98-24.55 117.93-22.9Q117.88-22.2 117.88-21L117.88-21 117.88-20.8Q117.88-17.45 118.58-12.55L118.58-12.55Q119.38-5.9 120.93-3.1L120.93-3.1Q121.93-1.35 123.03-1.35L123.03-1.35Z" opacity="1" transform="matrix(1,0,0,1,0,0)" fill="#80cb89" class="undefined-text-0" data-fill-palette-color="primary" id="text-0"></path></svg></g></svg></g><g transform="matrix(1,0,0,1,0,155.22248977634203)"><svg viewBox="0 0 395.52 71.95551619952494" height="71.95551619952494" width="395.52"><g transform="matrix(1,0,0,1,0,0)"><svg width="395.52" viewBox="2.5999999046325684 -34.5 370.1999816894531 67.3499984741211" height="71.95551619952494" data-palette-color="#fefefe"><path d="M26.5-11.45Q27.35-11.05 27.35-10.3L27.35-10.3Q27.35-8.05 24.73-5.58 22.1-3.1 18.23-1.43 14.35 0.25 11.05 0.25L11.05 0.25Q8.35 0.25 6.45-0.85 4.55-1.95 3.58-3.33 2.6-4.7 2.6-5.35L2.6-5.35Q2.95-6.65 3.28-8.45 3.6-10.25 3.75-10.95L3.75-10.95Q3.9-11.85 4.13-13.08 4.35-14.3 4.7-15.9L4.7-15.9Q4.9-16.9 6.45-18.13 8-19.35 9.98-20.18 11.95-21 13.25-21L13.25-21Q14.35-21 15.88-20.4 17.4-19.8 18.5-18.73 19.6-17.65 19.6-16.2L19.6-16.2Q19.6-14.35 17.78-12.6 15.95-10.85 13.15-9.73 10.35-8.6 7.65-8.5L7.65-8.5 7.25-6.4Q7.4-4.85 8.7-3.73 10-2.6 12.6-2.6L12.6-2.6Q15.1-2.6 17.82-3.75 20.55-4.9 22.88-6.93 25.2-8.95 26.5-11.45L26.5-11.45ZM12.8-18.9Q11.55-18.9 10.38-17.7 9.2-16.5 8.9-15.3L8.9-15.3 8.05-10.75Q11.05-10.95 13.15-12.5 15.25-14.05 15.25-16.15L15.25-16.15Q15.25-17.4 14.53-18.15 13.8-18.9 12.8-18.9L12.8-18.9ZM56.95-12.05Q57.85-12.05 57.85-10.55L57.85-10.55Q57.85-8.15 55.93-5.53 54-2.9 51.15-1.15 48.3 0.6 45.9 0.6L45.9 0.6Q44 0.6 42.58-0.5 41.15-1.6 40.55-3.35L40.55-3.35Q39.2-1.65 37.3-0.63 35.4 0.4 33.9 0.4L33.9 0.4Q32.6 0.4 31.3-0.38 30-1.15 29.1-2.35 28.2-3.55 28.15-4.75L28.15-4.75Q29.3-9.85 30.2-14.65L30.2-14.65Q30.4-15.65 31.9-17.18 33.4-18.7 35.5-19.8 37.6-20.9 39.5-20.9L39.5-20.9Q41.25-20.9 43.05-19.85L43.05-19.85Q43.4-20.7 43.6-20.93 43.8-21.15 44.2-21.2L44.2-21.2 48.55-21.45 48.7-21.35Q48.1-20.85 47.8-20.25 47.5-19.65 47.25-18.85L47.25-18.85Q46.35-15.8 45.4-11.48 44.45-7.15 44.45-5.5L44.45-5.5Q44.45-4.1 45.13-2.95 45.8-1.8 47.25-1.8L47.25-1.8Q48.75-1.8 50.73-3.1 52.7-4.4 54.43-6.75 56.15-9.1 56.95-12.05L56.95-12.05ZM35.5-2.6Q36.2-2.6 37.2-3.3 38.2-4 39.08-5.2 39.95-6.4 40.3-7.85L40.3-7.85 41.1-11.6Q42-16.2 42.35-17.65L42.35-17.65Q41.05-18.25 39.6-18.25L39.6-18.25Q37.25-18.25 36.08-16.78 34.9-15.3 34.5-13.45L34.5-13.45 32.95-5.9Q33.05-4.65 33.85-3.63 34.65-2.6 35.5-2.6L35.5-2.6ZM78.3-8.8Q78.6-8.4 78.6-7.95L78.6-7.95Q78.6-7.6 78.4-6.9L78.4-6.9Q77.7-5.3 75.4-3.55 73.1-1.8 70.23-0.65 67.35 0.5 65.2 0.5L65.2 0.5Q62.8 0.5 61.48-0.95 60.15-2.4 60.15-4.85L60.15-4.85Q60.15-7.55 62.15-17.9L62.15-17.9 57.2-17.7Q57.15-17.7 57-17.95 56.85-18.2 56.8-18.35L56.8-18.35Q57.6-19.95 58.1-20.65L58.1-20.65 62.65-20.65 64.95-32.15Q68.15-33.95 70.85-34.5L70.85-34.5Q71.05-34.5 71.33-34.23 71.6-33.95 71.6-33.75L71.6-33.75Q69.6-32.8 69.15-30.65L69.15-30.65Q68.45-27.55 67.1-20.6L67.1-20.6 76.5-20.55Q76.45-20.35 76.48-19.95 76.5-19.55 76.5-19.35L76.5-19.35Q76.5-18.9 76.25-18.7 76-18.5 75.5-18.5L75.5-18.5 66.65-18.1Q64.75-8.15 64.75-5.5L64.75-5.5Q64.75-4.15 65.45-3.35 66.15-2.55 67.65-2.55L67.65-2.55Q69.9-2.55 72.7-4.25 75.5-5.95 78.3-8.8L78.3-8.8ZM135.1-12.2Q135.7-12.2 136.05-11.88 136.4-11.55 136.4-10.9L136.4-10.9Q136.4-9.4 134.8-6.7 133.2-4 130.6-1.95 128 0.1 125.05 0.1L125.05 0.1Q122.4 0.1 120.48-1.53 118.55-3.15 118.55-5.5L118.55-5.5Q118.55-6.8 119.13-8.85 119.7-10.9 120.6-13.6L120.6-13.6Q121.4-16.2 121.5-16.6L121.5-16.6Q121.5-16.75 121.3-16.88 121.1-17 120.9-17L120.9-17Q119.95-17 117.6-13.73 115.25-10.45 114.05-8.15L114.05-8.15Q113.55-6.55 112.25-0.95L112.25-0.95Q112.05-0.1 111.93 0.2 111.8 0.5 111.55 0.5L111.55 0.5Q111.25 0.5 110.33 0.23 109.4-0.05 108.68-0.45 107.95-0.85 107.95-1.25L107.95-1.25Q107.95-1.9 108.4-3.55L108.4-3.55Q109.55-7.75 110.2-10.33 110.85-12.9 111.6-16.6L111.6-16.6Q111.3-17 110.85-17L110.85-17Q110.1-17 108.68-15.43 107.25-13.85 105.63-11.28 104-8.7 102.7-5.9L102.7-5.9Q101.8-2.65 101.2 0.45L101.2 0.45Q100.55 0.45 98.83 0.1 97.1-0.25 97.1-0.65L97.1-0.65Q97.1-1 97.6-2.85L97.6-2.85 97.85-4.15Q98.05-5.15 99.15-10.18 100.25-15.2 101.55-20.1L101.55-20.1Q101.65-20.55 101.8-20.75 101.95-20.95 102.25-20.95L102.25-20.95Q102.65-20.95 104.35-20.63 106.05-20.3 106.2-20.15L106.2-20.15Q105.25-16.05 104.1-11.7L104.1-11.7Q105.7-14.65 107.33-16.55 108.95-18.45 110.28-19.28 111.6-20.1 112.35-20.1L112.35-20.1Q113-20.1 114.63-19.48 116.25-18.85 116.25-18.5L116.25-18.5Q115.85-16.1 115-12.8L115-12.8Q120.25-20.65 122.6-20.65L122.6-20.65Q123.5-20.65 125-20.08 126.5-19.5 126.5-18.8L126.5-18.8Q125.95-17.05 126-17.15L126-17.15Q124.65-12.85 123.93-10.1 123.2-7.35 123.2-5.65L123.2-5.65Q123.2-2.55 126.1-2.55L126.1-2.55Q128.9-2.55 131.4-5.2 133.9-7.85 135.1-12.2L135.1-12.2ZM166.75-18.15Q167.4-17.9 167.4-17.1L167.4-17.1Q167.4-15.7 166.05-14.43 164.7-13.15 162.53-12.35 160.35-11.55 158.05-11.55L158.05-11.55Q156.25-11.55 154.35-12.1L154.35-12.1Q154.3-11.75 154.2-11.33 154.1-10.9 154-10.3L154-10.3Q153.85-9.5 153.43-7.35 153-5.2 152.9-4.3L152.9-4.3Q152.5-3.45 151.2-2.33 149.9-1.2 148.15-0.4 146.4 0.4 144.7 0.4L144.7 0.4Q143.05 0.4 141.35-0.4 139.65-1.2 138.53-2.58 137.4-3.95 137.4-5.55L137.4-5.55Q138.1-8.25 138.45-10 138.8-11.75 139.3-15L139.3-15Q139.5-16.2 140.93-17.57 142.35-18.95 144.43-19.85 146.5-20.75 148.5-20.75L148.5-20.75 149.15-20.75Q149.3-21.65 149.85-22.08 150.4-22.5 151.5-22.5L151.5-22.5Q153.15-22.5 153.6-21.85L153.6-21.85Q153.1-19.75 153.1-18.85L153.1-18.85Q153.1-16.6 154.73-15.3 156.35-14 159.25-14L159.25-14Q161.7-14 163.75-15 165.8-16 166.75-18.15L166.75-18.15ZM145.2-2.3Q146.2-2.3 147.25-3.03 148.3-3.75 148.65-4.65L148.65-4.65Q149.15-7.35 149.6-9.25L149.6-9.25Q149.75-9.95 150.08-11.5 150.4-13.05 150.6-14.3L150.6-14.3Q149.35-15.55 149.05-17.3L149.05-17.3Q149.05-17.5 148.98-17.65 148.9-17.8 148.75-17.85L148.75-17.85Q148.45-17.95 147.9-17.95L147.9-17.95Q146.2-17.95 145.1-16.98 144-16 143.7-14.45L143.7-14.45Q142.65-9.55 141.8-5.7L141.8-5.7Q141.85-4.15 142.95-3.23 144.05-2.3 145.2-2.3L145.2-2.3ZM191.1-17.85Q191.5-17.6 191.5-17.2L191.5-17.2Q191.5-16.1 190.6-15 189.7-13.9 188.1-13.2 186.5-12.5 184.6-12.5L184.6-12.5Q181.95-12.5 180.35-13.85 178.75-15.2 178.65-17.3L178.65-17.3Q176.45-17.1 174.78-15.5 173.1-13.9 172.25-11.6L172.25-11.6 172.25-11.5 172.25-11.5Q172.05-11 172-10.75L172-10.75Q171.55-9.15 170.05-0.5L170.05-0.5Q170 0 167.9 0L167.9 0Q165.9 0 165.9-0.7L165.9-0.7Q165.9-1.1 166.2-2.75L166.2-2.75Q167.1-7.8 168.15-13.25 169.2-18.7 169.45-19.55L169.45-19.55Q169.65-20.3 170.18-20.55 170.7-20.8 171.6-20.8L171.6-20.8Q173.3-20.8 174.5-20.3L174.5-20.3Q174.1-19.15 173.4-16.2L173.4-16.2Q174.8-18.2 176.58-19.4 178.35-20.6 180.2-20.6L180.2-20.6Q181.05-20.6 181.65-20.38 182.25-20.15 182.4-19.85L182.4-19.85Q182.4-14.75 186.15-14.75L186.15-14.75Q189.15-14.75 191.1-17.85L191.1-17.85ZM214.85-11.45Q215.7-11.05 215.7-10.3L215.7-10.3Q215.7-8.05 213.08-5.58 210.45-3.1 206.58-1.43 202.7 0.25 199.4 0.25L199.4 0.25Q196.7 0.25 194.8-0.85 192.9-1.95 191.93-3.33 190.95-4.7 190.95-5.35L190.95-5.35Q191.3-6.65 191.63-8.45 191.95-10.25 192.1-10.95L192.1-10.95Q192.25-11.85 192.48-13.08 192.7-14.3 193.05-15.9L193.05-15.9Q193.25-16.9 194.8-18.13 196.35-19.35 198.33-20.18 200.3-21 201.6-21L201.6-21Q202.7-21 204.23-20.4 205.75-19.8 206.85-18.73 207.95-17.65 207.95-16.2L207.95-16.2Q207.95-14.35 206.13-12.6 204.3-10.85 201.5-9.73 198.7-8.6 196-8.5L196-8.5 195.6-6.4Q195.75-4.85 197.05-3.73 198.35-2.6 200.95-2.6L200.95-2.6Q203.45-2.6 206.18-3.75 208.9-4.9 211.23-6.93 213.55-8.95 214.85-11.45L214.85-11.45ZM201.15-18.9Q199.9-18.9 198.73-17.7 197.55-16.5 197.25-15.3L197.25-15.3 196.4-10.75Q199.4-10.95 201.5-12.5 203.6-14.05 203.6-16.15L203.6-16.15Q203.6-17.4 202.88-18.15 202.15-18.9 201.15-18.9L201.15-18.9ZM260.5-10.5Q261.35-10.1 261.35-8.95L261.35-8.95Q261.35-8 260.35-6.6L260.35-6.6Q257.6-2.9 253.08-1.3 248.55 0.3 243.75 0.3L243.75 0.3Q238.75 0.3 238.75-1.4L238.75-1.4Q238.75-1.95 238.95-2.38 239.15-2.8 239.2-3L239.2-3Q240.45-2.55 241.85-2.55L241.85-2.55Q244.15-2.55 245.33-3.9 246.5-5.25 247.05-7.58 247.6-9.9 248.45-15.25L248.45-15.25Q248.5-15.9 247.33-16.73 246.15-17.55 245.25-17.55L245.25-17.55Q244.6-17.55 243.6-17 242.6-16.45 241.58-15.08 240.55-13.7 239.9-11.45L239.9-11.45Q239.35-9.55 238.7-5.98 238.05-2.4 236.95 4.5L236.95 4.5Q236.75 5.85 235.48 13.6 234.2 21.35 232.7 28.35L232.7 28.35Q232.4 29.65 231.68 30.33 230.95 31 229.93 31.3 228.9 31.6 227 31.9L227 31.9Q224.25 32.3 222.3 32.85L222.3 32.85 221.8 32.6Q224.6 30.65 225.88 29.2 227.15 27.75 227.73 26 228.3 24.25 229.15 20.2L229.15 20.2Q233.2 0.7 234.68-6.95 236.15-14.6 236.9-19.05L236.9-19.05Q237.2-20.45 237.6-22.9L237.6-22.9Q237.75-23.7 238.08-24.1 238.4-24.5 239-24.75L239-24.75Q240.9-25.55 241.53-25.85 242.15-26.15 243.1-26.85L243.1-26.85Q243.4-26.75 243.5-26.55L243.5-26.55Q243.45-26.35 243.18-25.78 242.9-25.2 242.7-24.55L242.7-24.55Q242.45-23.8 242.05-22.08 241.65-20.35 241.35-19.15L241.35-19.15 240.9-17.2Q242.3-18.8 243.98-19.9 245.65-21 246.95-21L246.95-21Q248.1-21 249.65-20.2 251.2-19.4 252.35-18.23 253.5-17.05 253.55-16.1L253.55-16.1Q252.8-11.65 252.28-9.53 251.75-7.4 250.53-5.5 249.3-3.6 247.05-2.45L247.05-2.45Q251.1-2.75 254.35-4.7 257.6-6.65 260.5-10.5L260.5-10.5ZM290.9-12.05Q291.8-12.05 291.8-10.55L291.8-10.55Q291.8-8.15 289.88-5.53 287.95-2.9 285.1-1.15 282.25 0.6 279.85 0.6L279.85 0.6Q277.95 0.6 276.53-0.5 275.1-1.6 274.5-3.35L274.5-3.35Q273.15-1.65 271.25-0.63 269.35 0.4 267.85 0.4L267.85 0.4Q266.55 0.4 265.25-0.38 263.95-1.15 263.05-2.35 262.15-3.55 262.1-4.75L262.1-4.75Q263.25-9.85 264.15-14.65L264.15-14.65Q264.35-15.65 265.85-17.18 267.35-18.7 269.45-19.8 271.55-20.9 273.45-20.9L273.45-20.9Q275.2-20.9 277-19.85L277-19.85Q277.35-20.7 277.55-20.93 277.75-21.15 278.15-21.2L278.15-21.2 282.5-21.45 282.65-21.35Q282.05-20.85 281.75-20.25 281.45-19.65 281.2-18.85L281.2-18.85Q280.3-15.8 279.35-11.48 278.4-7.15 278.4-5.5L278.4-5.5Q278.4-4.1 279.08-2.95 279.75-1.8 281.2-1.8L281.2-1.8Q282.7-1.8 284.68-3.1 286.65-4.4 288.38-6.75 290.1-9.1 290.9-12.05L290.9-12.05ZM269.45-2.6Q270.15-2.6 271.15-3.3 272.15-4 273.03-5.2 273.9-6.4 274.25-7.85L274.25-7.85 275.05-11.6Q275.95-16.2 276.3-17.65L276.3-17.65Q275-18.25 273.55-18.25L273.55-18.25Q271.2-18.25 270.03-16.78 268.85-15.3 268.45-13.45L268.45-13.45 266.9-5.9Q267-4.65 267.8-3.63 268.6-2.6 269.45-2.6L269.45-2.6ZM297.75 0.65Q295.9 0.65 294.35 0 292.8-0.65 291.9-1.68 291-2.7 291-3.8L291-3.8Q291-4.8 291.7-5.38 292.4-5.95 293.3-6.05L293.3-6.05Q293.9-4.05 295.1-2.9 296.3-1.75 298.05-1.75L298.05-1.75Q299.85-1.75 301-2.88 302.15-4 302.15-5.5L302.15-5.5Q302.15-6.75 301.4-7.68 300.65-8.6 299-9.9L299-9.9Q297.3-11.25 296.45-12.3 295.6-13.35 295.6-14.8L295.6-14.8Q295.6-16.4 296.68-17.8 297.75-19.2 299.43-20.03 301.1-20.85 302.75-20.85L302.75-20.85Q304.6-20.85 306.3-19.98 308-19.1 308-17.95L308-17.95Q308-17.4 307.6-16.85 307.2-16.3 306.4-15.95L306.4-15.95Q305.7-17.15 304.93-17.75 304.15-18.35 303.05-18.35L303.05-18.35Q301.85-18.35 300.95-17.68 300.05-17 300.05-15.8L300.05-15.8Q300.05-14.75 300.8-13.88 301.55-13 303.1-11.75L303.1-11.75Q304.95-10.25 305.88-9.13 306.8-8 306.8-6.45L306.8-6.45Q306.8-4.7 305.53-3.05 304.25-1.4 302.18-0.38 300.1 0.65 297.75 0.65L297.75 0.65ZM336.25-8.8Q336.55-8.4 336.55-7.95L336.55-7.95Q336.55-7.6 336.35-6.9L336.35-6.9Q335.65-5.3 333.35-3.55 331.05-1.8 328.18-0.65 325.3 0.5 323.15 0.5L323.15 0.5Q320.75 0.5 319.43-0.95 318.1-2.4 318.1-4.85L318.1-4.85Q318.1-7.55 320.1-17.9L320.1-17.9 315.15-17.7Q315.1-17.7 314.95-17.95 314.8-18.2 314.75-18.35L314.75-18.35Q315.55-19.95 316.05-20.65L316.05-20.65 320.6-20.65 322.9-32.15Q326.1-33.95 328.8-34.5L328.8-34.5Q329-34.5 329.28-34.23 329.55-33.95 329.55-33.75L329.55-33.75Q327.55-32.8 327.1-30.65L327.1-30.65Q326.4-27.55 325.05-20.6L325.05-20.6 334.45-20.55Q334.4-20.35 334.43-19.95 334.45-19.55 334.45-19.35L334.45-19.35Q334.45-18.9 334.2-18.7 333.95-18.5 333.45-18.5L333.45-18.5 324.6-18.1Q322.7-8.15 322.7-5.5L322.7-5.5Q322.7-4.15 323.4-3.35 324.1-2.55 325.6-2.55L325.6-2.55Q327.85-2.55 330.65-4.25 333.45-5.95 336.25-8.8L336.25-8.8ZM367.05-12.05Q367.95-12.05 367.95-10.55L367.95-10.55Q367.95-8.15 366.03-5.53 364.1-2.9 361.25-1.15 358.4 0.6 356 0.6L356 0.6Q354.1 0.6 352.68-0.5 351.25-1.6 350.65-3.35L350.65-3.35Q349.3-1.65 347.4-0.63 345.5 0.4 344 0.4L344 0.4Q342.7 0.4 341.4-0.38 340.1-1.15 339.2-2.35 338.3-3.55 338.25-4.75L338.25-4.75Q339.4-9.85 340.3-14.65L340.3-14.65Q340.5-15.65 342-17.18 343.5-18.7 345.6-19.8 347.7-20.9 349.6-20.9L349.6-20.9Q351.35-20.9 353.15-19.85L353.15-19.85Q353.5-20.7 353.7-20.93 353.9-21.15 354.3-21.2L354.3-21.2 358.65-21.45 358.8-21.35Q358.2-20.85 357.9-20.25 357.6-19.65 357.35-18.85L357.35-18.85Q356.45-15.8 355.5-11.48 354.55-7.15 354.55-5.5L354.55-5.5Q354.55-4.1 355.23-2.95 355.9-1.8 357.35-1.8L357.35-1.8Q358.85-1.8 360.83-3.1 362.8-4.4 364.53-6.75 366.25-9.1 367.05-12.05L367.05-12.05ZM345.6-2.6Q346.3-2.6 347.3-3.3 348.3-4 349.18-5.2 350.05-6.4 350.4-7.85L350.4-7.85 351.2-11.6Q352.1-16.2 352.45-17.65L352.45-17.65Q351.15-18.25 349.7-18.25L349.7-18.25Q347.35-18.25 346.18-16.78 345-15.3 344.6-13.45L344.6-13.45 343.05-5.9Q343.15-4.65 343.95-3.63 344.75-2.6 345.6-2.6L345.6-2.6ZM369.45 0.5Q368.4 0.5 367.8-0.1 367.2-0.7 367.2-1.85L367.2-1.85Q367.2-3.35 368.13-4.35 369.05-5.35 370.55-5.35L370.55-5.35Q372.8-5.35 372.8-3.1L372.8-3.1Q372.8-1.6 371.88-0.55 370.95 0.5 369.45 0.5L369.45 0.5Z" opacity="1" transform="matrix(1,0,0,1,0,0)" fill="#fefefe" class="undefined-text-1" data-fill-palette-color="secondary" id="text-1"></path></svg></g></svg></g></svg></g></svg></g><g transform="matrix(1,0,0,1,76.53311999999997,0)"><svg viewBox="0 0 244.43135999999998 139.9144857271875" height="139.9144857271875" width="244.43135999999998"><g><svg xmlns="http://www.w3.org/2000/svg" xmlns:xlink="http://www.w3.org/1999/xlink" version="1.1" x="0" y="0" viewBox="0 106.90199279785156 500 286.20404052734375" enable-background="new 0 0 500 500" xml:space="preserve" height="139.9144857271875" width="244.43135999999998" class="icon-icon-0" data-fill-palette-color="accent" id="icon-0"><path d="M250.668 277c12.316 0 12.042 17.539 32.561 58.125 20.516 40.592 46.834 52.484 68.687 57.39l5.13 0.591c11.843 0 20.554-22.751 31.476-25.67 11.298-3.02 30.127 12.031 40.021 6.308 10.032-5.807 6.307-29.763 14.449-37.91 8.144-8.143 32.065-4.435 37.872-14.47 5.724-9.895-9.405-28.73-6.386-40.028C477.396 270.416 500 261.697 500 249.859c0-11.839-22.604-20.558-25.522-31.48-3.02-11.298 12.109-30.127 6.386-40.02-5.807-10.036-29.729-6.307-37.872-14.45-8.143-8.143-4.417-32.064-14.449-37.871-9.894-5.725-28.723 9.404-40.021 6.385-10.922-2.922-19.633-25.521-31.476-25.521l-5.13 0.894c-21.853 4.905-48.171 18.343-68.687 58.934C262.71 207.316 262.984 227 250.668 227h-1.337c-12.316 0-12.042-19.684-32.561-60.271-20.515-40.591-46.833-53.556-68.69-58.461l-5.127-1.13c-11.843 0-20.553 22.484-31.475 25.406-11.298 3.02-30.127-12.169-40.021-6.449-10.032 5.807-6.306 29.699-14.449 37.845-8.143 8.144-32.065 4.397-37.872 14.433-5.724 9.894 9.405 28.713 6.385 40.011C22.604 229.306 0 238.017 0 249.859c0 11.838 22.604 20.548 25.522 31.471 3.02 11.298-12.109 30.123-6.385 40.017 5.807 10.036 29.729 6.306 37.872 14.453 8.143 8.143 4.417 32.061 14.449 37.868 9.894 5.724 28.722-9.401 40.021-6.386 10.922 2.922 19.632 25.522 31.475 25.522l5.127-0.891c21.856-4.905 48.175-16.197 68.69-56.789C237.29 294.539 237.016 277 249.332 277H250.668z" fill="#f3e798" data-fill-palette-color="accent"></path></svg></g></svg></g><g></g></svg></g><defs></defs></svg><rect width="224.4905235080606" height="247.2" fill="none" stroke="none" visibility="hidden"></rect></g></svg></g></svg>